<svg data-v-423bf9ae="" xmlns="http://www.w3.org/2000/svg" viewBox="0 0 273.1598945100674 60" class="font"><!----><!----><defs data-v-423bf9ae=""><linearGradient data-v-423bf9ae="" gradientTransform="rotate(25)" id="a400018a-5042-4ebb-88c5-0687c18e63c3" x1="0%" y1="0%" x2="100%" y2="0%"><stop data-v-423bf9ae="" offset="0%" style="stop-color: rgb(148, 80, 105); stop-opacity: 1;"></stop><stop data-v-423bf9ae="" offset="100%" style="stop-color: rgb(134, 200, 102); stop-opacity: 1;"></stop></linearGradient></defs><g data-v-423bf9ae="" id="af86d8e9-8f28-4d84-91d0-ab4041a4fd32" fill="url(#a400018a-5042-4ebb-88c5-0687c18e63c3)" transform="matrix(3.807106543694319,0,0,3.807106543694319,-4.91116707955112,-9.441624777813864)"><path d="M11.81 5.17L10.58 5.17L10.58 5.17Q11.98 4.25 12.13 4.25L12.13 4.25L14.70 4.25L14.70 4.25Q14.44 4.33 14.12 4.59L14.12 4.59L14.12 4.59Q13.51 5.07 13.19 5.17L13.19 5.17L13.19 5.17Q13.10 5.72 12.95 6.26L12.95 6.26L12.95 6.26Q12.81 6.80 12.58 7.77L12.58 7.77L12.58 7.77Q12.12 9.71 10.90 12.67L10.90 12.67L10.90 12.67Q10.83 12.84 10.76 13.03L10.76 13.03L10.76 13.03Q10.69 13.22 10.61 13.35L10.61 13.35L10.61 13.35Q10.52 13.48 10.36 13.61L10.36 13.61L10.36 13.61Q10.19 13.75 10.00 13.88L10.00 13.88L10.00 13.88Q9.80 14.01 9.61 14.13L9.61 14.13L9.61 14.13Q9.43 14.25 9.32 14.31L9.32 14.31L9.32 14.20L9.32 14.20Q9.32 13.75 8.98 13.17L8.98 13.17L8.98 13.17Q8.89 13.00 8.39 12.13L8.39 12.13L8.39 12.13Q7.13 9.93 4.98 6.72L4.98 6.72L4.31 9.67L4.31 9.67Q4.20 10.10 4.10 10.59L4.10 10.59L4.10 10.59Q3.99 11.07 3.83 11.54L3.83 11.54L3.83 11.54Q3.46 12.63 2.87 13.15L2.87 13.15L5.08 13.15L5.08 13.15Q3.68 14.08 3.53 14.08L3.53 14.08L1.29 14.08L1.29 14.08Q1.84 13.48 2.09 12.89L2.09 12.89L2.09 12.89Q2.47 12.02 2.75 10.80L2.75 10.80L2.75 10.80Q3.42 7.91 3.90 5.17L3.90 5.17L2.35 5.17L2.35 5.17Q3.75 4.25 3.90 4.25L3.90 4.25L6.47 4.25L6.47 4.25Q6.25 4.33 5.78 4.70L5.78 4.70L5.78 4.70Q7.26 6.81 8.14 8.25L8.14 8.25L8.14 8.25Q9.02 9.70 9.44 10.37L9.44 10.37L9.44 10.37Q9.86 11.03 10.25 11.74L10.25 11.74L10.25 11.74Q11.29 8.50 11.81 5.17L11.81 5.17ZM18.64 8.15L18.64 8.15L18.64 8.15Q18.64 9.58 14.74 11.53L14.74 11.53L14.74 11.53Q14.81 13.25 16.54 13.25L16.54 13.25L16.54 13.25Q17.32 13.25 18.16 12.82L18.16 12.82L18.16 12.82Q17.19 13.75 15.73 14.08L15.73 14.08L15.73 14.08Q15.27 14.18 14.84 14.18L14.84 14.18L14.84 14.18Q14.40 14.18 14.09 14.02L14.09 14.02L14.09 14.02Q13.78 13.87 13.58 13.61L13.58 13.61L13.58 13.61Q13.21 13.10 13.21 12.41L13.21 12.41L13.21 12.41Q13.21 11.72 13.42 11.15L13.42 11.15L13.42 11.15Q13.62 10.59 13.98 10.05L13.98 10.05L13.98 10.05Q14.33 9.51 14.79 9.02L14.79 9.02L14.79 9.02Q15.26 8.54 15.78 8.18L15.78 8.18L15.78 8.18Q16.93 7.38 17.90 7.38L17.90 7.38L17.90 7.38Q18.25 7.38 18.44 7.60L18.44 7.60L18.44 7.60Q18.64 7.81 18.64 8.15ZM16.93 9.52L16.93 9.52L16.93 9.52Q17.10 9.25 17.10 9.03L17.10 9.03L17.10 9.03Q17.10 8.80 16.92 8.57L16.92 8.57L16.92 8.57Q16.75 8.34 16.43 8.34L16.43 8.34L16.43 8.34Q16.12 8.34 15.90 8.49L15.90 8.49L15.90 8.49Q15.67 8.65 15.50 8.89L15.50 8.89L15.50 8.89Q15.32 9.14 15.18 9.45L15.18 9.45L15.18 9.45Q15.05 9.76 14.95 10.08L14.95 10.08L14.95 10.08Q14.78 10.68 14.75 11.20L14.75 11.20L14.75 11.20Q15.42 11.03 16.27 10.25L16.27 10.25L16.27 10.25Q16.77 9.79 16.93 9.52ZM23.41 11.00L23.41 11.00L23.41 11.00Q23.69 10.52 23.90 10.01L23.90 10.01L23.90 10.01Q24.10 9.51 24.10 9.07L24.10 9.07L24.10 9.07Q24.10 8.63 23.84 8.27L23.84 8.27L23.84 8.27Q23.93 8.22 24.17 8.06L24.17 8.06L24.17 8.06Q24.41 7.89 24.56 7.79L24.56 7.79L24.56 7.79Q24.72 7.68 24.86 7.60L24.86 7.60L24.86 7.60Q25.16 7.40 25.22 7.40L25.22 7.40L25.22 7.40Q25.29 7.40 25.35 7.55L25.35 7.55L25.35 7.55Q25.42 7.70 25.46 7.90L25.46 7.90L25.46 7.90Q25.50 8.09 25.54 8.28L25.54 8.28L25.54 8.28Q25.57 8.46 25.66 9.00L25.66 9.00L25.66 9.00Q26.01 11.16 26.03 12.67L26.03 12.67L26.03 12.67Q27.26 11.09 27.67 10.28L27.67 10.28L27.67 10.28Q28.03 9.54 28.03 9.03L28.03 9.03L28.03 9.03Q28.03 8.60 27.76 8.41L27.76 8.41L27.76 8.41Q27.67 8.35 27.56 8.35L27.56 8.35L27.56 8.35Q27.39 8.35 27.19 8.44L27.19 8.44L27.19 8.44Q27.38 8.35 27.62 8.18L27.62 8.18L27.62 8.18Q27.86 8.01 28.11 7.85L28.11 7.85L28.11 7.85Q28.72 7.43 28.94 7.43L28.94 7.43L28.94 7.43Q29.17 7.43 29.27 7.49L29.27 7.49L29.27 7.49Q29.37 7.55 29.42 7.64L29.42 7.64L29.42 7.64Q29.54 7.84 29.54 8.15L29.54 8.15L29.54 8.15Q29.54 8.45 29.38 8.86L29.38 8.86L29.38 8.86Q29.23 9.27 28.98 9.71L28.98 9.71L28.98 9.71Q28.72 10.14 28.41 10.59L28.41 10.59L28.41 10.59Q28.09 11.03 27.76 11.44L27.76 11.44L27.76 11.44Q27.44 11.85 27.14 12.21L27.14 12.21L27.14 12.21Q26.84 12.56 26.66 12.77L26.66 12.77L26.66 12.77Q26.48 12.97 26.35 13.14L26.35 13.14L26.35 13.14Q26.22 13.30 26.11 13.42L26.11 13.42L26.11 13.42Q26.00 13.53 25.79 13.65L25.79 13.65L25.79 13.65Q25.59 13.78 25.34 13.92L25.34 13.92L25.34 13.92Q25.10 14.06 24.87 14.19L24.87 14.19L24.87 14.19Q24.64 14.31 24.53 14.38L24.53 14.38L24.53 14.38Q24.51 12.09 24.37 10.75L24.37 10.75L24.37 10.75Q23.82 11.61 23.35 12.24L23.35 12.24L23.35 12.24Q22.89 12.87 22.75 13.07L22.75 13.07L22.75 13.07Q22.62 13.28 22.52 13.38L22.52 13.38L22.52 13.38Q22.43 13.49 22.32 13.56L22.32 13.56L22.32 13.56Q22.21 13.63 22.06 13.72L22.06 13.72L22.06 13.72Q21.91 13.82 21.73 13.91L21.73 13.91L21.73 13.91Q21.56 14.01 21.40 14.11L21.40 14.11L21.40 14.11Q21.24 14.20 21.11 14.27L21.11 14.27L21.11 14.27Q20.98 14.35 20.92 14.38L20.92 14.38L20.93 12.95L20.93 12.53L20.93 12.53Q20.93 9.26 20.21 8.49L20.21 8.49L20.21 8.49Q20.04 8.33 19.88 8.33L19.88 8.33L19.88 8.33Q19.62 8.33 19.38 8.46L19.38 8.46L19.38 8.46Q20.57 7.46 21.31 7.46L21.31 7.46L21.31 7.46Q21.68 7.46 21.88 8.08L21.88 8.08L21.88 8.08Q22.18 9.04 22.31 10.97L22.31 10.97L22.31 10.97Q22.38 12.00 22.33 12.63L22.33 12.63L22.33 12.63Q22.53 12.32 22.83 11.90L22.83 11.90L22.83 11.90Q23.13 11.48 23.41 11.00ZM35.44 14.08L35.44 14.08L33.24 14.08L33.24 14.08Q33.82 13.61 34.08 12.67L34.08 12.67L34.08 12.67Q34.15 12.41 34.21 12.13L34.21 12.13L35.84 5.17L34.34 5.17L34.34 5.17Q34.49 5.12 34.70 4.97L34.70 4.97L34.70 4.97Q34.91 4.81 35.14 4.65L35.14 4.65L35.14 4.65Q35.70 4.25 35.88 4.25L35.88 4.25L38.92 4.24L38.92 4.24Q40.76 4.24 41.97 4.94L41.97 4.94L41.97 4.94Q43.42 5.79 43.42 7.55L43.42 7.55L43.42 7.55Q43.42 9.47 42.16 11.03L42.16 11.03L42.16 11.03Q41.00 12.46 39.12 13.28L39.12 13.28L39.12 13.28Q37.30 14.08 35.44 14.08ZM40.69 11.84L40.69 11.84Q41.30 11.20 41.60 10.29L41.60 10.29L41.60 10.29Q41.91 9.39 41.91 8.49L41.91 8.49L41.91 8.49Q41.91 7.59 41.71 7.09L41.71 7.09L41.71 7.09Q41.51 6.60 41.16 6.25L41.16 6.25L41.16 6.25Q40.82 5.91 40.36 5.69L40.36 5.69L40.36 5.69Q39.89 5.48 39.37 5.37L39.37 5.37L39.37 5.37Q38.50 5.17 37.17 5.17L37.17 5.17L35.63 11.76L35.63 11.76Q35.51 12.29 35.40 12.49L35.40 12.49L35.40 12.49Q35.22 12.81 34.87 13.17L34.87 13.17L37.14 13.17L37.14 13.17Q39.44 13.17 40.69 11.84L40.69 11.84ZM48.98 8.15L48.98 8.15L48.98 8.15Q48.98 9.58 45.08 11.53L45.08 11.53L45.08 11.53Q45.14 13.25 46.87 13.25L46.87 13.25L46.87 13.25Q47.66 13.25 48.50 12.82L48.50 12.82L48.50 12.82Q47.53 13.75 46.07 14.08L46.07 14.08L46.07 14.08Q45.61 14.18 45.18 14.18L45.18 14.18L45.18 14.18Q44.74 14.18 44.43 14.02L44.43 14.02L44.43 14.02Q44.12 13.87 43.92 13.61L43.92 13.61L43.92 13.61Q43.54 13.10 43.54 12.41L43.54 12.41L43.54 12.41Q43.54 11.72 43.75 11.15L43.75 11.15L43.75 11.15Q43.96 10.59 44.31 10.05L44.31 10.05L44.31 10.05Q44.67 9.51 45.13 9.02L45.13 9.02L45.13 9.02Q45.60 8.54 46.12 8.18L46.12 8.18L46.12 8.18Q47.26 7.38 48.23 7.38L48.23 7.38L48.23 7.38Q48.58 7.38 48.78 7.60L48.78 7.60L48.78 7.60Q48.98 7.81 48.98 8.15ZM47.27 9.52L47.27 9.52L47.27 9.52Q47.43 9.25 47.43 9.03L47.43 9.03L47.43 9.03Q47.43 8.80 47.26 8.57L47.26 8.57L47.26 8.57Q47.09 8.34 46.77 8.34L46.77 8.34L46.77 8.34Q46.46 8.34 46.23 8.49L46.23 8.49L46.23 8.49Q46.01 8.65 45.83 8.89L45.83 8.89L45.83 8.89Q45.66 9.14 45.52 9.45L45.52 9.45L45.52 9.45Q45.38 9.76 45.29 10.08L45.29 10.08L45.29 10.08Q45.12 10.68 45.08 11.20L45.08 11.20L45.08 11.20Q45.75 11.03 46.61 10.25L46.61 10.25L46.61 10.25Q47.11 9.79 47.27 9.52ZM50.68 12.41L50.68 12.41L50.68 12.41Q50.48 12.59 50.48 12.77L50.48 12.77L50.48 12.77Q50.48 12.94 50.65 13.05L50.65 13.05L50.65 13.05Q50.83 13.15 51.07 13.21L51.07 13.21L51.07 13.21Q51.49 13.30 51.93 13.30L51.93 13.30L51.93 13.30Q52.37 13.30 52.61 13.04L52.61 13.04L52.61 13.04Q52.85 12.78 52.85 12.39L52.85 12.39L52.85 12.39Q52.85 11.99 52.65 11.77L52.65 11.77L52.65 11.77Q52.45 11.56 52.14 11.41L52.14 11.41L52.14 11.41Q51.84 11.27 51.48 11.15L51.48 11.15L51.48 11.15Q51.13 11.03 50.82 10.89L50.82 10.89L50.82 10.89Q50.11 10.55 50.11 10.01L50.11 10.01L50.11 10.01Q50.11 9.43 50.88 8.76L50.88 8.76L50.88 8.76Q51.54 8.17 52.51 7.74L52.51 7.74L52.51 7.74Q53.46 7.31 54.02 7.31L54.02 7.31L54.02 7.31Q54.52 7.31 54.74 7.42L54.74 7.42L54.74 7.42Q54.97 7.53 54.97 7.62L54.97 7.62L54.97 7.62Q54.97 7.80 54.54 8.01L54.54 8.01L54.54 8.01Q53.72 8.42 53.25 8.78L53.25 8.78L53.25 8.78Q53.42 8.67 53.42 8.56L53.42 8.56L53.42 8.56Q53.42 8.44 53.30 8.39L53.30 8.39L53.30 8.39Q53.18 8.33 53.03 8.30L53.03 8.30L53.03 8.30Q52.77 8.25 52.49 8.25L52.49 8.25L52.49 8.25Q51.64 8.25 51.64 9.07L51.64 9.07L51.64 9.07Q51.64 9.66 52.51 9.95L52.51 9.95L52.51 9.95Q52.76 10.04 53.02 10.12L53.02 10.12L53.02 10.12Q53.27 10.21 53.52 10.30L53.52 10.30L53.52 10.30Q53.77 10.40 53.96 10.53L53.96 10.53L53.96 10.53Q54.39 10.83 54.39 11.28L54.39 11.28L54.39 11.28Q54.39 11.72 54.18 12.10L54.18 12.10L54.18 12.10Q53.97 12.47 53.62 12.79L53.62 12.79L53.62 12.79Q53.27 13.12 52.82 13.38L52.82 13.38L52.82 13.38Q52.38 13.65 51.91 13.84L51.91 13.84L51.91 13.84Q50.94 14.25 50.23 14.25L50.23 14.25L50.23 14.25Q49.53 14.25 49.11 13.96L49.11 13.96L49.11 13.96Q48.95 13.85 48.95 13.70L48.95 13.70L48.95 13.70Q48.95 13.54 49.05 13.42L49.05 13.42L49.05 13.42Q49.16 13.29 49.31 13.18L49.31 13.18L49.31 13.18Q49.47 13.06 49.67 12.96L49.67 12.96L49.67 12.96Q49.87 12.86 50.06 12.76L50.06 12.76L50.06 12.76Q50.58 12.50 50.68 12.41ZM57.94 3.41L59.49 2.48L59.49 2.48Q59.29 3.69 59.14 3.96L59.14 3.96L59.14 3.96Q59.10 4.05 58.67 4.29L58.67 4.29L58.67 4.29Q58.24 4.53 58.08 4.63L58.08 4.63L58.08 4.63Q57.72 4.83 57.59 4.89L57.59 4.89L57.59 4.89Q57.82 4.18 57.94 3.41L57.94 3.41ZM56.58 9.32L56.58 9.32L56.58 9.32Q56.58 8.83 56.14 8.83L56.14 8.83L56.14 8.83Q55.93 8.83 55.53 8.92L55.53 8.92L55.53 8.92Q57.59 7.60 58.45 7.21L58.45 7.21L57.33 12.03L57.33 12.03Q57.29 12.21 57.24 12.39L57.24 12.39L57.24 12.39Q57.20 12.58 57.20 12.76L57.20 12.76L57.20 12.76Q57.20 13.29 57.96 13.29L57.96 13.29L57.96 13.29Q58.15 13.29 58.41 13.24L58.41 13.24L58.41 13.24Q58.19 13.39 57.96 13.56L57.96 13.56L57.96 13.56Q57.72 13.73 57.48 13.88L57.48 13.88L57.48 13.88Q56.90 14.21 56.43 14.21L56.43 14.21L56.43 14.21Q55.87 14.21 55.73 13.91L55.73 13.91L55.73 13.91Q55.68 13.79 55.68 13.63L55.68 13.63L55.68 13.63Q55.68 13.38 55.74 13.13L55.74 13.13L56.49 9.88L56.49 9.88Q56.58 9.53 56.58 9.32ZM64.15 7.39L64.15 7.39L66.13 7.44L66.13 7.44Q66.47 7.44 66.76 7.29L66.76 7.29L66.76 7.29Q66.66 7.62 65.80 8.03L65.80 8.03L65.80 8.03Q65.48 8.18 65.28 8.23L65.28 8.23L65.28 8.23Q65.35 8.47 65.35 8.88L65.35 8.88L65.35 8.88Q65.35 9.30 65.18 9.72L65.18 9.72L65.18 9.72Q65.00 10.15 64.72 10.50L64.72 10.50L64.72 10.50Q64.44 10.85 64.07 11.13L64.07 11.13L64.07 11.13Q63.70 11.42 63.32 11.65L63.32 11.65L63.32 11.65Q62.95 11.89 62.58 12.09L62.58 12.09L62.58 12.09Q62.21 12.28 61.93 12.47L61.93 12.47L61.93 12.47Q61.30 12.87 61.30 13.16L61.30 13.16L61.30 13.16Q61.30 13.51 61.72 13.74L61.72 13.74L61.72 13.74Q61.95 13.86 62.31 14.01L62.31 14.01L62.31 14.01Q62.67 14.15 62.98 14.28L62.98 14.28L62.98 14.28Q63.29 14.42 63.59 14.58L63.59 14.58L63.59 14.58Q63.90 14.74 64.14 14.93L64.14 14.93L64.14 14.93Q64.70 15.35 64.70 15.79L64.70 15.79L64.70 15.79Q64.70 16.75 62.65 17.54L62.65 17.54L62.65 17.54Q61.41 18.03 60.22 18.19L60.22 18.19L60.22 18.19Q59.87 18.24 59.67 18.24L59.67 18.24L59.67 18.24Q59.48 18.24 59.26 18.22L59.26 18.22L59.26 18.22Q59.04 18.20 58.79 18.16L58.79 18.16L58.79 18.16Q58.54 18.12 58.29 18.05L58.29 18.05L58.29 18.05Q58.04 17.99 57.84 17.88L57.84 17.88L57.84 17.88Q57.38 17.63 57.38 17.30L57.38 17.30L57.38 17.30Q57.38 16.97 57.54 16.71L57.54 16.71L57.54 16.71Q57.71 16.44 57.97 16.21L57.97 16.21L57.97 16.21Q58.24 15.98 58.57 15.78L58.57 15.78L58.57 15.78Q58.91 15.58 59.24 15.41L59.24 15.41L59.24 15.41Q59.58 15.24 59.88 15.09L59.88 15.09L59.88 15.09Q60.18 14.94 60.40 14.82L60.40 14.82L60.40 14.82Q59.99 14.66 59.82 14.37L59.82 14.37L59.82 14.37Q59.76 14.26 59.76 14.13L59.76 14.13L59.76 14.13Q59.76 13.99 59.86 13.84L59.86 13.84L59.86 13.84Q59.95 13.69 60.10 13.55L60.10 13.55L60.10 13.55Q60.26 13.41 60.45 13.27L60.45 13.27L60.45 13.27Q60.64 13.13 60.83 13.02L60.83 13.02L60.83 13.02Q61.02 12.90 61.20 12.80L61.20 12.80L61.20 12.80Q61.37 12.70 61.48 12.63L61.48 12.63L61.48 12.63Q61.16 12.72 60.84 12.72L60.84 12.72L60.84 12.72Q60.53 12.72 60.26 12.60L60.26 12.60L60.26 12.60Q59.99 12.48 59.81 12.26L59.81 12.26L59.81 12.26Q59.45 11.85 59.45 11.23L59.45 11.23L59.45 11.23Q59.45 10.62 59.67 10.14L59.67 10.14L59.67 10.14Q59.89 9.66 60.25 9.24L60.25 9.24L60.25 9.24Q60.61 8.83 61.09 8.48L61.09 8.48L61.09 8.48Q61.57 8.14 62.09 7.90L62.09 7.90L62.09 7.90Q63.19 7.39 64.15 7.39ZM63.81 9.68L63.81 9.68L63.81 9.68Q63.81 9.00 63.46 8.66L63.46 8.66L63.46 8.66Q63.12 8.33 62.57 8.33L62.57 8.33L62.57 8.33Q62.01 8.33 61.71 8.49L61.71 8.49L61.71 8.49Q61.42 8.66 61.26 8.94L61.26 8.94L61.26 8.94Q60.98 9.41 60.98 10.23L60.98 10.23L60.98 10.23Q60.98 11.81 62.44 11.81L62.44 11.81L62.44 11.81Q63.09 11.81 63.49 11.01L63.49 11.01L63.49 11.01Q63.81 10.36 63.81 9.68ZM61.50 17.30L61.50 17.30L61.50 17.30Q63.18 17.30 63.18 16.43L63.18 16.43L63.18 16.43Q63.18 15.76 61.04 15.07L61.04 15.07L61.04 15.07Q60.80 14.98 60.66 14.93L60.66 14.93L60.66 14.93Q58.95 15.61 58.95 16.39L58.95 16.39L58.95 16.39Q58.95 16.78 60.66 17.17L60.66 17.17L60.66 17.17Q61.24 17.30 61.50 17.30ZM71.87 12.70L71.87 12.70L71.87 12.70Q71.87 13.26 72.49 13.26L72.49 13.26L72.49 13.26Q72.74 13.26 73.04 13.16L73.04 13.16L73.04 13.16Q72.34 13.66 72.06 13.82L72.06 13.82L72.06 13.82Q71.43 14.18 70.95 14.18L70.95 14.18L70.95 14.18Q70.33 14.18 70.33 13.59L70.33 13.59L70.33 13.59Q70.33 13.33 70.49 12.70L70.49 12.70L71.08 10.14L71.08 10.14Q71.16 9.77 71.16 9.51L71.16 9.51L71.16 9.51Q71.16 8.39 70 8.39L70 8.39L70 8.39Q69.01 8.39 68.58 9.84L68.58 9.84L68.58 9.84Q68.48 10.22 68.41 10.53L68.41 10.53L67.92 12.64L67.92 12.64Q67.89 12.74 67.89 12.87L67.89 12.87L67.89 12.87Q67.89 13.30 68.26 13.30L68.26 13.30L68.26 13.30Q68.41 13.30 68.58 13.23L68.58 13.23L68.58 13.23Q67.25 14.22 66.73 14.22L66.73 14.22L66.73 14.22Q66.33 14.22 66.33 13.82L66.33 13.82L66.33 13.82Q66.33 13.64 66.73 11.98L66.73 11.98L66.73 11.98Q67.14 10.33 67.27 9.73L67.27 9.73L67.27 9.73Q67.44 8.98 67.44 8.83L67.44 8.83L67.44 8.83Q67.44 8.33 66.79 8.33L66.79 8.33L66.79 8.33Q66.50 8.33 66.19 8.44L66.19 8.44L66.19 8.44Q66.45 8.35 66.77 8.10L66.77 8.10L66.77 8.10Q67.40 7.62 67.61 7.55L67.61 7.55L67.61 7.55Q68.05 7.39 68.39 7.39L68.39 7.39L68.39 7.39Q68.97 7.39 68.97 7.91L68.97 7.91L68.97 7.91Q68.97 8.13 68.86 8.57L68.86 8.57L68.86 8.57Q70.43 7.44 71.52 7.44L71.52 7.44L71.52 7.44Q72.03 7.44 72.39 7.72L72.39 7.72L72.39 7.72Q72.76 8.03 72.76 8.53L72.76 8.53L72.76 8.53Q72.76 8.67 72.73 8.83L72.73 8.83L71.94 12.20L71.94 12.20Q71.87 12.51 71.87 12.70Z"></path></g><!----><!----></svg>